<svg xmlns="http://www.w3.org/2000/svg" version="1.1" viewBox="-5.0 -5.0 110.0 110.0">
 <path d="m9.375 25c-0.80078 0-1.6016-0.30469-2.2109-0.91406-1.2227-1.2227-1.2227-3.1953 0-4.418l12.5-12.504c1.2227-1.2227 3.1953-1.2227 4.418 0 1.2227 1.2227 1.2227 3.1953 0 4.418l-12.496 12.504c-0.60938 0.60937-1.4102 0.91406-2.2109 0.91406zm83.461-0.91406c1.2227-1.2227 1.2227-3.1953 0-4.418l-12.5-12.5c-1.2227-1.2227-3.1953-1.2227-4.418 0-1.2227 1.2227-1.2227 3.1953 0 4.418l12.5 12.5c0.60938 0.60937 1.4102 0.91406 2.2109 0.91406 0.80078 0 1.6016-0.30469 2.2109-0.91406zm-6.2422 68.758c-0.625 0.59375-1.4062 0.90625-2.2188 0.90625s-1.5938-0.3125-2.2188-0.90625l-11.531-11.531c-5.9062 3.9062-13 6.1875-20.625 6.1875s-14.719-2.2812-20.625-6.1875l-11.531 11.531c-0.625 0.59375-1.4062 0.90625-2.2188 0.90625s-1.5938-0.3125-2.2188-0.90625c-1.2188-1.2188-1.2188-3.2188 0-4.4375l11.031-11.031c-7.3438-6.8125-11.938-16.562-11.938-27.375 0-20.688 16.812-37.5 37.5-37.5s37.5 16.812 37.5 37.5c0 10.812-4.5938 20.562-11.938 27.375l11.031 11.031c1.2188 1.2188 1.2188 3.2188 0 4.4375zm-14.719-42.844c0-1.7188-1.4062-3.125-3.125-3.125h-15.625v-15.625c0-1.7188-1.4062-3.125-3.125-3.125s-3.125 1.4062-3.125 3.125v15.625c0 3.4375 2.8125 6.25 6.25 6.25h15.625c1.7188 0 3.125-1.4062 3.125-3.125z"/>
</svg>