<svg xmlns="http://www.w3.org/2000/svg" width="800px" height="800px" version="1.1" viewBox="-5.0 -5.0 110.0 110.0">
 <path d="m87.5 50c0.027344-12.652-6.3281-24.465-16.898-31.414-10.57-6.9492-23.934-8.1016-35.539-3.0625-11.602 5.0391-19.883 15.59-22.023 28.059-2.1367 12.469 2.1562 25.176 11.418 33.793l-11.043 11.039c-0.60156 0.58203-0.94531 1.3828-0.95312 2.2227-0.007813 0.83594 0.32422 1.6445 0.91406 2.2383 0.59375 0.58984 1.4023 0.92188 2.2383 0.91406 0.83984-0.007812 1.6406-0.35156 2.2227-0.95312l11.539-11.547c6.1133 4.0547 13.289 6.2148 20.625 6.2148s14.512-2.1602 20.625-6.2148l11.562 11.562c1.2266 1.1836 3.1758 1.1641 4.3789-0.039062 1.207-1.207 1.2227-3.1562 0.039063-4.3828l-11.062-11.055c7.6211-7.0664 11.953-16.984 11.957-27.375zm-68.75 0c0-8.2891 3.293-16.238 9.1523-22.098s13.809-9.1523 22.098-9.1523 16.238 3.293 22.098 9.1523 9.1523 13.809 9.1523 22.098-3.293 16.238-9.1523 22.098-13.809 9.1523-22.098 9.1523c-8.2852-0.007812-16.227-3.3047-22.086-9.1641-5.8594-5.8594-9.1562-13.801-9.1641-22.086zm5.3359-38.414-12.5 12.5c-1.2266 1.1836-3.1758 1.1641-4.3828-0.039063-1.2031-1.207-1.2227-3.1562-0.039063-4.3828l12.5-12.5c1.2266-1.1836 3.1758-1.1641 4.3828 0.039063 1.2031 1.207 1.2227 3.1562 0.039063 4.3828zm68.75 12.5c-1.2227 1.2188-3.1992 1.2188-4.4219 0l-12.5-12.5c-1.1836-1.2266-1.1641-3.1758 0.039063-4.3828 1.207-1.2031 3.1562-1.2227 4.3828-0.039063l12.5 12.5c1.2188 1.2227 1.2188 3.1992 0 4.4219zm-20.961 25.914c0 0.82812-0.32812 1.625-0.91406 2.2109-0.58594 0.58594-1.3828 0.91406-2.2109 0.91406h-15.625c-3.4531 0-6.25-2.7969-6.25-6.25v-15.625c0-1.7266 1.3984-3.125 3.125-3.125s3.125 1.3984 3.125 3.125v15.625h15.625c0.82812 0 1.625 0.32812 2.2109 0.91406 0.58594 0.58594 0.91406 1.3828 0.91406 2.2109z"/>
</svg>