<svg xmlns="http://www.w3.org/2000/svg" version="1.1" viewBox="-5.0 -5.0 110.0 110.0">
 <path d="m64.961 28.684c-1.8711 2.2539-4.3047 4.7734-6.8008 7.2109-2.5156 2.457-5.0625 4.793-7.1562 6.6758-0.57422 0.51563-1.4414 0.50391-2.0039 0-1.8828-1.6953-4.1289-3.75-6.3984-5.9414-2.25-2.168-4.4961-4.4492-6.3867-6.5859-0.54688-0.61719-0.48828-1.5625 0.12891-2.1094 0.11719-0.10547 0.24609-0.1875 0.38672-0.24609 5.3516-2.4961 8.7109-1.6914 12.441-0.79297 3.5156 0.84375 7.418 1.7812 14.18-0.63672 0.78125-0.27734 1.6406 0.12891 1.918 0.91016 0.19141 0.53906 0.054688 1.1211-0.30859 1.5195zm-43.672-26.184h57.422c0.82812 0 1.5 0.67188 1.5 1.5v10.863c0 0.82812-0.67188 1.5-1.5 1.5h-3.543v5.3281c0 7.6797-11.262 17.953-22.91 28.312 11.648 10.359 22.91 20.629 22.91 28.309l-0.007813 5.3242h3.5508c0.82812 0 1.5 0.67188 1.5 1.5v10.863c0 0.82812-0.67188 1.5-1.5 1.5h-57.422c-0.82812 0-1.5-0.67188-1.5-1.5v-10.863c0-0.82812 0.67188-1.5 1.5-1.5h3.5547v-5.3242c-0.007812-7.6836 11.254-17.953 22.902-28.309-11.652-10.359-22.91-20.629-22.91-28.312v-5.3281h-3.543c-0.82812 0-1.5-0.67188-1.5-1.5v-10.863c0-0.82812 0.67188-1.5 1.5-1.5zm50.879 13.863h-44.336v5.3281c0 6.4258 10.926 16.316 22.168 26.309 11.238-9.9883 22.168-19.879 22.168-26.309zm-44.336 67.273h3.4023v-5.3242c-0.007813-2.2656 2.1758-4.9297 5.4492-7.4922 3.4453-2.6992 8.1914-5.4258 12.727-7.4141 0.46484-0.20312 1.0234-0.16406 1.4648 0.15234 2.2695 1.6172 4.7383 3.1445 7.0664 4.5859 5.8008 3.5898 10.836 6.707 10.836 10.168v5.3242h3.4023v-5.3242c-0.007813-6.4258-10.934-16.316-22.172-26.305-11.238 9.9883-22.164 19.879-22.164 26.305l-0.003906 5.3242z"/>
</svg>