<svg xmlns="http://www.w3.org/2000/svg" version="1.1" viewBox="-5.0 -5.0 110.0 110.0">
 <path d="m65.426 29.809c-1.8516 2.2227-4.2578 4.7188-6.7266 7.1289-2.4922 2.4336-4.9844 4.7188-7.0273 6.5586-0.96094 0.86719-2.418 0.84375-3.3555-0.011719-1.8203-1.6367-4.0078-3.6445-6.2695-5.8242-2.2109-2.1328-4.4297-4.3828-6.3047-6.5039-0.91016-1.0312-0.81641-2.6055 0.21484-3.5156 0.19531-0.17188 0.41016-0.30859 0.63672-0.41016 5.5547-2.5859 9-1.7578 12.832-0.83594 3.2969 0.79297 6.957 1.6719 13.289-0.58984 1.3008-0.46484 2.7305 0.21484 3.1914 1.5117 0.31641 0.88672 0.10156 1.8359-0.48047 2.4922zm-43.512-27.312h56.172c1.3789 0 2.5 1.1211 2.5 2.5v10.629c0 1.3789-1.1211 2.5-2.5 2.5h-2.4336v4.1758c0 7.7656-10.637 17.668-21.895 27.695 11.258 10.023 21.895 19.93 21.895 27.695l-0.007813 4.1758h2.4414c1.3789 0 2.5 1.1211 2.5 2.5v10.629c0 1.3789-1.1211 2.5-2.5 2.5h-56.172c-1.3789 0-2.5-1.1211-2.5-2.5v-10.629c0-1.3789 1.1211-2.5 2.5-2.5h2.4453v-4.1758c-0.011719-7.7656 10.629-17.668 21.883-27.695-11.258-10.027-21.895-19.93-21.895-27.695v-4.1758h-2.4336c-1.3789 0-2.5-1.1211-2.5-2.5v-10.629c0-1.3789 1.1211-2.5 2.5-2.5zm48.738 15.629h-41.305v4.1758c0 5.7148 10.074 14.945 20.652 24.355 10.574-9.4102 20.652-18.645 20.652-24.355zm4.9336-10.629h-51.172v5.625h51.172zm-46.242 74.371h1.2656v-4.1758c-0.011719-2.5664 2.2852-5.4492 5.7227-8.1406 3.4258-2.6836 8.1289-5.3906 12.621-7.3672 0.78516-0.35938 1.7344-0.30469 2.4883 0.23438 2.2188 1.582 4.6055 3.0625 6.8594 4.4531 5.9336 3.6719 11.086 6.8672 11.086 10.82v4.1758h1.2695v-4.1758c-0.011719-5.7148-10.086-14.949-20.66-24.355-10.574 9.4062-20.652 18.641-20.652 24.355l-0.007812 4.1758zm6.25 0h28.816v-4.1758c0-1.1797-4.0547-3.6914-8.7227-6.582-1.957-1.2109-4.0078-2.4805-5.9492-3.8047-3.7578 1.7539-7.5391 3.9805-10.336 6.1719-2.2773 1.7852-3.8008 3.3438-3.8008 4.2148zm39.992 5h-51.172v5.6289h51.172zm-20.363-53.508 1.1406-1.125c-3.2344 0.16406-5.7383-0.4375-8.0898-1.0039-2.0234-0.48828-3.9102-0.9375-6.1836-0.57031 1.0938 1.1289 2.2539 2.2773 3.418 3.3984 1.5 1.4453 3.0508 2.8867 4.4961 4.207 1.6641-1.5195 3.4766-3.2109 5.2188-4.9102z"/>
</svg>